<mxfile host="app.diagrams.net" agent="Mozilla/5.0 (Windows NT 10.0; Win64; x64) AppleWebKit/537.36 (KHTML, like Gecko) Chrome/133.0.0.0 Safari/537.36 Edg/133.0.0.0" version="26.0.12">
  <diagram name="Halaman-1" id="tmFfmUbgmLxXHqI4VPhQ">
    <mxGraphModel dx="2330" dy="1137" grid="1" gridSize="10" guides="1" tooltips="1" connect="1" arrows="1" fold="1" page="1" pageScale="1" pageWidth="827" pageHeight="1169" math="0" shadow="0">
      <root>
        <mxCell id="0" />
        <mxCell id="1" parent="0" />
        <mxCell id="l5ueMoTK3Zp0rzUJ3MbO-1" value="Dashboard: Rekomendasi Film" style="rounded=1;whiteSpace=wrap;html=1;arcSize=50;" vertex="1" parent="1">
          <mxGeometry x="339" y="350" width="150" height="40" as="geometry" />
        </mxCell>
        <mxCell id="l5ueMoTK3Zp0rzUJ3MbO-2" value="" style="ellipse;whiteSpace=wrap;html=1;aspect=fixed;strokeWidth=7;" vertex="1" parent="1">
          <mxGeometry x="384" y="10" width="60" height="60" as="geometry" />
        </mxCell>
        <mxCell id="l5ueMoTK3Zp0rzUJ3MbO-4" value="Apakah sudah&amp;nbsp;&lt;div&gt;punya akun?&lt;/div&gt;" style="rhombus;whiteSpace=wrap;html=1;" vertex="1" parent="1">
          <mxGeometry x="334" y="230" width="160" height="80" as="geometry" />
        </mxCell>
        <mxCell id="l5ueMoTK3Zp0rzUJ3MbO-5" value="" style="ellipse;whiteSpace=wrap;html=1;aspect=fixed;fillColor=#000000;strokeWidth=7;" vertex="1" parent="1">
          <mxGeometry x="394" y="20" width="40" height="40" as="geometry" />
        </mxCell>
        <mxCell id="l5ueMoTK3Zp0rzUJ3MbO-6" value="sign up" style="shape=parallelogram;perimeter=parallelogramPerimeter;whiteSpace=wrap;html=1;fixedSize=1;" vertex="1" parent="1">
          <mxGeometry x="161.5" y="240" width="122.5" height="60" as="geometry" />
        </mxCell>
        <mxCell id="l5ueMoTK3Zp0rzUJ3MbO-7" value="login" style="shape=parallelogram;perimeter=parallelogramPerimeter;whiteSpace=wrap;html=1;fixedSize=1;" vertex="1" parent="1">
          <mxGeometry x="349" y="110" width="130" height="70" as="geometry" />
        </mxCell>
        <mxCell id="l5ueMoTK3Zp0rzUJ3MbO-11" value="Pilih Film" style="rhombus;whiteSpace=wrap;html=1;" vertex="1" parent="1">
          <mxGeometry x="134" y="370" width="180" height="80" as="geometry" />
        </mxCell>
        <mxCell id="l5ueMoTK3Zp0rzUJ3MbO-13" value="Tidak" style="endArrow=classic;html=1;rounded=0;exitX=0;exitY=0.5;exitDx=0;exitDy=0;entryX=0.5;entryY=0;entryDx=0;entryDy=0;" edge="1" parent="1" source="l5ueMoTK3Zp0rzUJ3MbO-1" target="l5ueMoTK3Zp0rzUJ3MbO-11">
          <mxGeometry width="50" height="50" relative="1" as="geometry">
            <mxPoint x="434" y="210" as="sourcePoint" />
            <mxPoint x="434" y="250" as="targetPoint" />
          </mxGeometry>
        </mxCell>
        <mxCell id="l5ueMoTK3Zp0rzUJ3MbO-14" value="side bar" style="rounded=1;whiteSpace=wrap;html=1;arcSize=29;" vertex="1" parent="1">
          <mxGeometry x="54" y="470" width="160" height="40" as="geometry" />
        </mxCell>
        <mxCell id="l5ueMoTK3Zp0rzUJ3MbO-16" value="Ya" style="endArrow=classic;html=1;rounded=0;exitX=1;exitY=0.5;exitDx=0;exitDy=0;entryX=0.5;entryY=0;entryDx=0;entryDy=0;" edge="1" parent="1" source="l5ueMoTK3Zp0rzUJ3MbO-11" target="l5ueMoTK3Zp0rzUJ3MbO-24">
          <mxGeometry width="50" height="50" relative="1" as="geometry">
            <mxPoint x="424" y="400" as="sourcePoint" />
            <mxPoint x="599" y="550" as="targetPoint" />
          </mxGeometry>
        </mxCell>
        <mxCell id="l5ueMoTK3Zp0rzUJ3MbO-17" value="Tidak" style="endArrow=classic;html=1;rounded=0;exitX=0;exitY=0.5;exitDx=0;exitDy=0;entryX=0.5;entryY=0;entryDx=0;entryDy=0;" edge="1" parent="1" source="l5ueMoTK3Zp0rzUJ3MbO-11" target="l5ueMoTK3Zp0rzUJ3MbO-14">
          <mxGeometry width="50" height="50" relative="1" as="geometry">
            <mxPoint x="434" y="410" as="sourcePoint" />
            <mxPoint x="434" y="450" as="targetPoint" />
          </mxGeometry>
        </mxCell>
        <mxCell id="l5ueMoTK3Zp0rzUJ3MbO-19" value="" style="endArrow=classic;html=1;rounded=0;entryX=0;entryY=0;entryDx=0;entryDy=0;" edge="1" parent="1" target="l5ueMoTK3Zp0rzUJ3MbO-26">
          <mxGeometry width="50" height="50" relative="1" as="geometry">
            <mxPoint x="314" y="670" as="sourcePoint" />
            <mxPoint x="684" y="740" as="targetPoint" />
          </mxGeometry>
        </mxCell>
        <mxCell id="l5ueMoTK3Zp0rzUJ3MbO-20" value="Ya" style="endArrow=classic;html=1;rounded=0;exitX=0.5;exitY=1;exitDx=0;exitDy=0;entryX=0.5;entryY=0;entryDx=0;entryDy=0;" edge="1" parent="1" source="l5ueMoTK3Zp0rzUJ3MbO-4" target="l5ueMoTK3Zp0rzUJ3MbO-1">
          <mxGeometry width="50" height="50" relative="1" as="geometry">
            <mxPoint x="714" y="210" as="sourcePoint" />
            <mxPoint x="714" y="250" as="targetPoint" />
          </mxGeometry>
        </mxCell>
        <mxCell id="l5ueMoTK3Zp0rzUJ3MbO-21" value="Tidak" style="endArrow=classic;html=1;rounded=0;exitX=0;exitY=0.5;exitDx=0;exitDy=0;entryX=1;entryY=0.5;entryDx=0;entryDy=0;" edge="1" parent="1" source="l5ueMoTK3Zp0rzUJ3MbO-4" target="l5ueMoTK3Zp0rzUJ3MbO-6">
          <mxGeometry width="50" height="50" relative="1" as="geometry">
            <mxPoint x="724" y="220" as="sourcePoint" />
            <mxPoint x="724" y="260" as="targetPoint" />
          </mxGeometry>
        </mxCell>
        <mxCell id="l5ueMoTK3Zp0rzUJ3MbO-22" value="" style="endArrow=classic;html=1;rounded=0;entryX=0;entryY=0.75;entryDx=0;entryDy=0;" edge="1" parent="1" target="l5ueMoTK3Zp0rzUJ3MbO-7">
          <mxGeometry width="50" height="50" relative="1" as="geometry">
            <mxPoint x="224" y="161" as="sourcePoint" />
            <mxPoint x="349" y="170" as="targetPoint" />
          </mxGeometry>
        </mxCell>
        <mxCell id="l5ueMoTK3Zp0rzUJ3MbO-23" value="Ya" style="endArrow=classic;html=1;rounded=0;exitX=0.5;exitY=1;exitDx=0;exitDy=0;entryX=0.5;entryY=0;entryDx=0;entryDy=0;" edge="1" parent="1" source="l5ueMoTK3Zp0rzUJ3MbO-7" target="l5ueMoTK3Zp0rzUJ3MbO-4">
          <mxGeometry width="50" height="50" relative="1" as="geometry">
            <mxPoint x="744" y="240" as="sourcePoint" />
            <mxPoint x="744" y="280" as="targetPoint" />
          </mxGeometry>
        </mxCell>
        <mxCell id="l5ueMoTK3Zp0rzUJ3MbO-24" value="Search bar" style="rounded=1;whiteSpace=wrap;html=1;arcSize=29;" vertex="1" parent="1">
          <mxGeometry x="234" y="470" width="160" height="40" as="geometry" />
        </mxCell>
        <mxCell id="l5ueMoTK3Zp0rzUJ3MbO-25" value="Beri Rating" style="rhombus;whiteSpace=wrap;html=1;" vertex="1" parent="1">
          <mxGeometry x="94" y="710" width="160" height="80" as="geometry" />
        </mxCell>
        <mxCell id="l5ueMoTK3Zp0rzUJ3MbO-54" style="edgeStyle=orthogonalEdgeStyle;rounded=0;orthogonalLoop=1;jettySize=auto;html=1;entryX=0;entryY=0.5;entryDx=0;entryDy=0;" edge="1" parent="1" source="l5ueMoTK3Zp0rzUJ3MbO-26" target="l5ueMoTK3Zp0rzUJ3MbO-53">
          <mxGeometry relative="1" as="geometry" />
        </mxCell>
        <mxCell id="l5ueMoTK3Zp0rzUJ3MbO-26" value="Tonton Film" style="rounded=1;whiteSpace=wrap;html=1;arcSize=29;" vertex="1" parent="1">
          <mxGeometry x="334" y="670" width="160" height="40" as="geometry" />
        </mxCell>
        <mxCell id="l5ueMoTK3Zp0rzUJ3MbO-27" value="" style="endArrow=classic;html=1;rounded=0;entryX=0;entryY=0.5;entryDx=0;entryDy=0;" edge="1" parent="1" target="l5ueMoTK3Zp0rzUJ3MbO-26">
          <mxGeometry width="50" height="50" relative="1" as="geometry">
            <mxPoint x="134" y="690" as="sourcePoint" />
            <mxPoint x="694" y="750" as="targetPoint" />
            <Array as="points" />
          </mxGeometry>
        </mxCell>
        <mxCell id="l5ueMoTK3Zp0rzUJ3MbO-73" style="edgeStyle=orthogonalEdgeStyle;rounded=0;orthogonalLoop=1;jettySize=auto;html=1;entryX=0.5;entryY=0;entryDx=0;entryDy=0;" edge="1" parent="1" source="l5ueMoTK3Zp0rzUJ3MbO-29" target="l5ueMoTK3Zp0rzUJ3MbO-72">
          <mxGeometry relative="1" as="geometry" />
        </mxCell>
        <mxCell id="l5ueMoTK3Zp0rzUJ3MbO-29" value="Nilai" style="rounded=1;whiteSpace=wrap;html=1;arcSize=29;" vertex="1" parent="1">
          <mxGeometry x="54" y="830" width="160" height="40" as="geometry" />
        </mxCell>
        <mxCell id="l5ueMoTK3Zp0rzUJ3MbO-31" value="Ya" style="endArrow=classic;html=1;rounded=0;entryX=0.5;entryY=0;entryDx=0;entryDy=0;exitX=0;exitY=1;exitDx=0;exitDy=0;" edge="1" parent="1" source="l5ueMoTK3Zp0rzUJ3MbO-25" target="l5ueMoTK3Zp0rzUJ3MbO-29">
          <mxGeometry width="50" height="50" relative="1" as="geometry">
            <mxPoint x="174" y="790" as="sourcePoint" />
            <mxPoint x="304" y="760" as="targetPoint" />
          </mxGeometry>
        </mxCell>
        <mxCell id="l5ueMoTK3Zp0rzUJ3MbO-32" value="Tidak" style="endArrow=classic;html=1;rounded=0;entryX=0;entryY=0;entryDx=0;entryDy=0;" edge="1" parent="1" target="l5ueMoTK3Zp0rzUJ3MbO-36">
          <mxGeometry width="50" height="50" relative="1" as="geometry">
            <mxPoint x="254" y="1099" as="sourcePoint" />
            <mxPoint x="339" y="970" as="targetPoint" />
          </mxGeometry>
        </mxCell>
        <mxCell id="l5ueMoTK3Zp0rzUJ3MbO-36" value="" style="ellipse;whiteSpace=wrap;html=1;aspect=fixed;strokeWidth=5;" vertex="1" parent="1">
          <mxGeometry x="384" y="1090" width="60" height="60" as="geometry" />
        </mxCell>
        <mxCell id="l5ueMoTK3Zp0rzUJ3MbO-37" value="" style="ellipse;whiteSpace=wrap;html=1;aspect=fixed;fillColor=#000000;strokeWidth=7;" vertex="1" parent="1">
          <mxGeometry x="394" y="1100" width="40" height="40" as="geometry" />
        </mxCell>
        <mxCell id="l5ueMoTK3Zp0rzUJ3MbO-39" value="" style="endArrow=classic;html=1;rounded=0;exitX=0.5;exitY=1;exitDx=0;exitDy=0;entryX=0.5;entryY=0;entryDx=0;entryDy=0;" edge="1" parent="1" source="l5ueMoTK3Zp0rzUJ3MbO-2" target="l5ueMoTK3Zp0rzUJ3MbO-7">
          <mxGeometry width="50" height="50" relative="1" as="geometry">
            <mxPoint x="424" y="190" as="sourcePoint" />
            <mxPoint x="424" y="240" as="targetPoint" />
          </mxGeometry>
        </mxCell>
        <mxCell id="l5ueMoTK3Zp0rzUJ3MbO-40" value="Ya" style="endArrow=classic;html=1;rounded=0;exitX=0.5;exitY=1;exitDx=0;exitDy=0;entryX=0.5;entryY=0;entryDx=0;entryDy=0;" edge="1" parent="1" source="l5ueMoTK3Zp0rzUJ3MbO-1" target="l5ueMoTK3Zp0rzUJ3MbO-26">
          <mxGeometry width="50" height="50" relative="1" as="geometry">
            <mxPoint x="394" y="490" as="sourcePoint" />
            <mxPoint x="449" y="560" as="targetPoint" />
          </mxGeometry>
        </mxCell>
        <mxCell id="l5ueMoTK3Zp0rzUJ3MbO-44" value="" style="endArrow=none;html=1;rounded=0;exitX=0.5;exitY=0;exitDx=0;exitDy=0;" edge="1" parent="1" source="l5ueMoTK3Zp0rzUJ3MbO-6">
          <mxGeometry width="50" height="50" relative="1" as="geometry">
            <mxPoint x="223.38" y="240" as="sourcePoint" />
            <mxPoint x="224" y="160" as="targetPoint" />
            <Array as="points" />
          </mxGeometry>
        </mxCell>
        <mxCell id="l5ueMoTK3Zp0rzUJ3MbO-45" value="" style="endArrow=none;html=1;rounded=0;entryX=0.5;entryY=1;entryDx=0;entryDy=0;" edge="1" parent="1" target="l5ueMoTK3Zp0rzUJ3MbO-14">
          <mxGeometry width="50" height="50" relative="1" as="geometry">
            <mxPoint x="134" y="690" as="sourcePoint" />
            <mxPoint x="130" y="540" as="targetPoint" />
          </mxGeometry>
        </mxCell>
        <mxCell id="l5ueMoTK3Zp0rzUJ3MbO-46" value="" style="endArrow=none;html=1;rounded=0;entryX=0.5;entryY=1;entryDx=0;entryDy=0;" edge="1" parent="1" target="l5ueMoTK3Zp0rzUJ3MbO-24">
          <mxGeometry width="50" height="50" relative="1" as="geometry">
            <mxPoint x="314" y="670" as="sourcePoint" />
            <mxPoint x="256" y="550" as="targetPoint" />
          </mxGeometry>
        </mxCell>
        <mxCell id="l5ueMoTK3Zp0rzUJ3MbO-50" value="Lupa Password" style="endArrow=classic;html=1;rounded=0;exitX=1;exitY=0.25;exitDx=0;exitDy=0;entryX=0;entryY=0;entryDx=0;entryDy=0;" edge="1" parent="1" source="l5ueMoTK3Zp0rzUJ3MbO-7" target="l5ueMoTK3Zp0rzUJ3MbO-51">
          <mxGeometry width="50" height="50" relative="1" as="geometry">
            <mxPoint x="254" y="300" as="sourcePoint" />
            <mxPoint x="534" y="150" as="targetPoint" />
          </mxGeometry>
        </mxCell>
        <mxCell id="l5ueMoTK3Zp0rzUJ3MbO-51" value="Reset Password" style="rounded=1;whiteSpace=wrap;html=1;arcSize=29;" vertex="1" parent="1">
          <mxGeometry x="614" y="130" width="160" height="40" as="geometry" />
        </mxCell>
        <mxCell id="l5ueMoTK3Zp0rzUJ3MbO-52" value="" style="endArrow=classic;html=1;rounded=0;entryX=1;entryY=1;entryDx=0;entryDy=0;exitX=0;exitY=1;exitDx=0;exitDy=0;" edge="1" parent="1" source="l5ueMoTK3Zp0rzUJ3MbO-51" target="l5ueMoTK3Zp0rzUJ3MbO-7">
          <mxGeometry width="50" height="50" relative="1" as="geometry">
            <mxPoint x="604" y="280" as="sourcePoint" />
            <mxPoint x="524" y="180" as="targetPoint" />
          </mxGeometry>
        </mxCell>
        <mxCell id="l5ueMoTK3Zp0rzUJ3MbO-53" value="Tambahkan Riwayat" style="rounded=1;whiteSpace=wrap;html=1;arcSize=29;" vertex="1" parent="1">
          <mxGeometry x="564" y="670" width="160" height="40" as="geometry" />
        </mxCell>
        <mxCell id="l5ueMoTK3Zp0rzUJ3MbO-56" value="" style="endArrow=classic;html=1;rounded=0;entryX=1;entryY=0.5;entryDx=0;entryDy=0;" edge="1" parent="1" target="l5ueMoTK3Zp0rzUJ3MbO-1">
          <mxGeometry width="50" height="50" relative="1" as="geometry">
            <mxPoint x="644" y="370" as="sourcePoint" />
            <mxPoint x="334" y="550" as="targetPoint" />
          </mxGeometry>
        </mxCell>
        <mxCell id="l5ueMoTK3Zp0rzUJ3MbO-57" value="" style="endArrow=none;html=1;rounded=0;entryX=0.5;entryY=0;entryDx=0;entryDy=0;" edge="1" parent="1" target="l5ueMoTK3Zp0rzUJ3MbO-53">
          <mxGeometry width="50" height="50" relative="1" as="geometry">
            <mxPoint x="644" y="370" as="sourcePoint" />
            <mxPoint x="334" y="550" as="targetPoint" />
          </mxGeometry>
        </mxCell>
        <mxCell id="l5ueMoTK3Zp0rzUJ3MbO-59" value="Tulis Komentar" style="rhombus;whiteSpace=wrap;html=1;" vertex="1" parent="1">
          <mxGeometry x="454" y="750" width="160" height="80" as="geometry" />
        </mxCell>
        <mxCell id="l5ueMoTK3Zp0rzUJ3MbO-61" value="" style="endArrow=classic;html=1;rounded=0;entryX=0.5;entryY=0;entryDx=0;entryDy=0;exitX=0;exitY=1;exitDx=0;exitDy=0;" edge="1" parent="1" source="l5ueMoTK3Zp0rzUJ3MbO-26" target="l5ueMoTK3Zp0rzUJ3MbO-25">
          <mxGeometry width="50" height="50" relative="1" as="geometry">
            <mxPoint x="334" y="741.21" as="sourcePoint" />
            <mxPoint x="432.7867965644034" y="739.9967965644037" as="targetPoint" />
          </mxGeometry>
        </mxCell>
        <mxCell id="l5ueMoTK3Zp0rzUJ3MbO-62" value="" style="endArrow=classic;html=1;rounded=0;entryX=0;entryY=0;entryDx=0;entryDy=0;exitX=1;exitY=1;exitDx=0;exitDy=0;" edge="1" parent="1" source="l5ueMoTK3Zp0rzUJ3MbO-26" target="l5ueMoTK3Zp0rzUJ3MbO-59">
          <mxGeometry width="50" height="50" relative="1" as="geometry">
            <mxPoint x="594" y="900.61" as="sourcePoint" />
            <mxPoint x="692.7867965644034" y="899.3967965644036" as="targetPoint" />
          </mxGeometry>
        </mxCell>
        <mxCell id="l5ueMoTK3Zp0rzUJ3MbO-63" value="Komen" style="rounded=1;whiteSpace=wrap;html=1;arcSize=29;" vertex="1" parent="1">
          <mxGeometry x="574" y="870" width="160" height="40" as="geometry" />
        </mxCell>
        <mxCell id="l5ueMoTK3Zp0rzUJ3MbO-64" value="Ya" style="endArrow=classic;html=1;rounded=0;entryX=0.5;entryY=0;entryDx=0;entryDy=0;" edge="1" parent="1" target="l5ueMoTK3Zp0rzUJ3MbO-63">
          <mxGeometry width="50" height="50" relative="1" as="geometry">
            <mxPoint x="653.66" y="790" as="sourcePoint" />
            <mxPoint x="653.66" y="870" as="targetPoint" />
          </mxGeometry>
        </mxCell>
        <mxCell id="l5ueMoTK3Zp0rzUJ3MbO-65" value="" style="endArrow=none;html=1;rounded=0;entryX=0;entryY=0.5;entryDx=0;entryDy=0;" edge="1" parent="1">
          <mxGeometry width="50" height="50" relative="1" as="geometry">
            <mxPoint x="614" y="789.66" as="sourcePoint" />
            <mxPoint x="654" y="789.66" as="targetPoint" />
            <Array as="points">
              <mxPoint x="634" y="789.66" />
            </Array>
          </mxGeometry>
        </mxCell>
        <mxCell id="l5ueMoTK3Zp0rzUJ3MbO-66" value="Tidak" style="endArrow=classic;html=1;rounded=0;entryX=1;entryY=0;entryDx=0;entryDy=0;" edge="1" parent="1" target="l5ueMoTK3Zp0rzUJ3MbO-36">
          <mxGeometry width="50" height="50" relative="1" as="geometry">
            <mxPoint x="534" y="1099" as="sourcePoint" />
            <mxPoint x="533.66" y="950" as="targetPoint" />
          </mxGeometry>
        </mxCell>
        <mxCell id="l5ueMoTK3Zp0rzUJ3MbO-67" value="" style="endArrow=classic;html=1;rounded=0;entryX=1;entryY=0.5;entryDx=0;entryDy=0;" edge="1" parent="1" target="l5ueMoTK3Zp0rzUJ3MbO-36">
          <mxGeometry width="50" height="50" relative="1" as="geometry">
            <mxPoint x="654" y="1120" as="sourcePoint" />
            <mxPoint x="622.7867965644034" y="988.7867965644036" as="targetPoint" />
          </mxGeometry>
        </mxCell>
        <mxCell id="l5ueMoTK3Zp0rzUJ3MbO-68" value="" style="endArrow=none;html=1;rounded=0;entryX=0.5;entryY=1;entryDx=0;entryDy=0;" edge="1" parent="1" target="l5ueMoTK3Zp0rzUJ3MbO-63">
          <mxGeometry width="50" height="50" relative="1" as="geometry">
            <mxPoint x="654" y="1120" as="sourcePoint" />
            <mxPoint x="654" y="920" as="targetPoint" />
          </mxGeometry>
        </mxCell>
        <mxCell id="l5ueMoTK3Zp0rzUJ3MbO-69" value="" style="endArrow=none;html=1;rounded=0;entryX=0.5;entryY=1;entryDx=0;entryDy=0;" edge="1" parent="1" target="l5ueMoTK3Zp0rzUJ3MbO-59">
          <mxGeometry width="50" height="50" relative="1" as="geometry">
            <mxPoint x="534" y="1100" as="sourcePoint" />
            <mxPoint x="533.58" y="890" as="targetPoint" />
          </mxGeometry>
        </mxCell>
        <mxCell id="l5ueMoTK3Zp0rzUJ3MbO-70" value="" style="endArrow=none;html=1;rounded=0;entryX=1;entryY=0.5;entryDx=0;entryDy=0;" edge="1" parent="1" target="l5ueMoTK3Zp0rzUJ3MbO-25">
          <mxGeometry width="50" height="50" relative="1" as="geometry">
            <mxPoint x="254" y="1100" as="sourcePoint" />
            <mxPoint x="674" y="930" as="targetPoint" />
          </mxGeometry>
        </mxCell>
        <mxCell id="l5ueMoTK3Zp0rzUJ3MbO-76" style="edgeStyle=orthogonalEdgeStyle;rounded=0;orthogonalLoop=1;jettySize=auto;html=1;entryX=0.5;entryY=0;entryDx=0;entryDy=0;" edge="1" parent="1" source="l5ueMoTK3Zp0rzUJ3MbO-72" target="l5ueMoTK3Zp0rzUJ3MbO-75">
          <mxGeometry relative="1" as="geometry" />
        </mxCell>
        <mxCell id="l5ueMoTK3Zp0rzUJ3MbO-72" value="Beri Ulasan" style="rhombus;whiteSpace=wrap;html=1;" vertex="1" parent="1">
          <mxGeometry x="54" y="910" width="160" height="80" as="geometry" />
        </mxCell>
        <mxCell id="l5ueMoTK3Zp0rzUJ3MbO-74" value="" style="endArrow=classic;html=1;rounded=0;entryX=0;entryY=1;entryDx=0;entryDy=0;" edge="1" parent="1" target="l5ueMoTK3Zp0rzUJ3MbO-36">
          <mxGeometry width="50" height="50" relative="1" as="geometry">
            <mxPoint x="134" y="1141" as="sourcePoint" />
            <mxPoint x="454" y="990" as="targetPoint" />
          </mxGeometry>
        </mxCell>
        <mxCell id="l5ueMoTK3Zp0rzUJ3MbO-75" value="Tulis Ulasan" style="rounded=1;whiteSpace=wrap;html=1;arcSize=29;" vertex="1" parent="1">
          <mxGeometry x="54" y="1030" width="160" height="40" as="geometry" />
        </mxCell>
        <mxCell id="l5ueMoTK3Zp0rzUJ3MbO-77" value="" style="endArrow=classic;html=1;rounded=0;entryX=0;entryY=0.5;entryDx=0;entryDy=0;" edge="1" parent="1" target="l5ueMoTK3Zp0rzUJ3MbO-36">
          <mxGeometry width="50" height="50" relative="1" as="geometry">
            <mxPoint x="214" y="1120" as="sourcePoint" />
            <mxPoint x="444" y="1000" as="targetPoint" />
          </mxGeometry>
        </mxCell>
        <mxCell id="l5ueMoTK3Zp0rzUJ3MbO-78" value="Tidak" style="endArrow=none;html=1;rounded=0;entryX=1;entryY=1;entryDx=0;entryDy=0;" edge="1" parent="1" target="l5ueMoTK3Zp0rzUJ3MbO-75">
          <mxGeometry width="50" height="50" relative="1" as="geometry">
            <mxPoint x="214" y="1120" as="sourcePoint" />
            <mxPoint x="444" y="1000" as="targetPoint" />
          </mxGeometry>
        </mxCell>
        <mxCell id="l5ueMoTK3Zp0rzUJ3MbO-79" value="Ya" style="endArrow=none;html=1;rounded=0;entryX=0.5;entryY=1;entryDx=0;entryDy=0;" edge="1" parent="1" target="l5ueMoTK3Zp0rzUJ3MbO-75">
          <mxGeometry width="50" height="50" relative="1" as="geometry">
            <mxPoint x="134" y="1140" as="sourcePoint" />
            <mxPoint x="444" y="1000" as="targetPoint" />
          </mxGeometry>
        </mxCell>
      </root>
    </mxGraphModel>
  </diagram>
</mxfile>
